<mxfile host="app.diagrams.net" agent="Mozilla/5.0 (Windows NT 10.0; Win64; x64) AppleWebKit/537.36 (KHTML, like Gecko) Chrome/127.0.0.0 Safari/537.36 Edg/127.0.0.0" version="24.7.14">
  <diagram name="Página-1" id="yuBcXGEzTgE4i31AjR8J">
    <mxGraphModel dx="575" dy="754" grid="1" gridSize="10" guides="1" tooltips="1" connect="1" arrows="1" fold="1" page="1" pageScale="1" pageWidth="827" pageHeight="1169" math="0" shadow="0">
      <root>
        <mxCell id="0" />
        <mxCell id="1" parent="0" />
        <mxCell id="11CcQ5xyjY3BbOYTez_T-3" value="" style="edgeStyle=orthogonalEdgeStyle;rounded=0;orthogonalLoop=1;jettySize=auto;html=1;endArrow=block;endFill=0;endSize=12;" edge="1" parent="1" source="11CcQ5xyjY3BbOYTez_T-2" target="11CcQ5xyjY3BbOYTez_T-1">
          <mxGeometry relative="1" as="geometry">
            <mxPoint x="140" y="370" as="sourcePoint" />
            <mxPoint x="70" y="370" as="targetPoint" />
            <Array as="points" />
          </mxGeometry>
        </mxCell>
        <mxCell id="11CcQ5xyjY3BbOYTez_T-1" value="Almoxarife" style="shape=umlActor;verticalLabelPosition=bottom;verticalAlign=top;html=1;outlineConnect=0;" vertex="1" parent="1">
          <mxGeometry x="80" y="260" width="30" height="60" as="geometry" />
        </mxCell>
        <mxCell id="11CcQ5xyjY3BbOYTez_T-2" value="Gestor&lt;div&gt;&lt;br&gt;&lt;/div&gt;" style="shape=umlActor;verticalLabelPosition=bottom;verticalAlign=top;html=1;outlineConnect=0;" vertex="1" parent="1">
          <mxGeometry x="80" y="440" width="30" height="60" as="geometry" />
        </mxCell>
        <mxCell id="11CcQ5xyjY3BbOYTez_T-5" value="Cadastrar Fornecedores" style="ellipse;whiteSpace=wrap;html=1;" vertex="1" parent="1">
          <mxGeometry x="210" y="200" width="120" height="40" as="geometry" />
        </mxCell>
        <mxCell id="11CcQ5xyjY3BbOYTez_T-6" value="Manutenção de ordens de Compra" style="ellipse;whiteSpace=wrap;html=1;" vertex="1" parent="1">
          <mxGeometry x="200" y="280" width="120" height="40" as="geometry" />
        </mxCell>
        <mxCell id="11CcQ5xyjY3BbOYTez_T-7" value="Finalizar Compras" style="ellipse;whiteSpace=wrap;html=1;" vertex="1" parent="1">
          <mxGeometry x="190" y="350" width="120" height="40" as="geometry" />
        </mxCell>
        <mxCell id="11CcQ5xyjY3BbOYTez_T-8" style="edgeStyle=orthogonalEdgeStyle;rounded=0;orthogonalLoop=1;jettySize=auto;html=1;exitX=0.5;exitY=1;exitDx=0;exitDy=0;" edge="1" parent="1" source="11CcQ5xyjY3BbOYTez_T-6" target="11CcQ5xyjY3BbOYTez_T-6">
          <mxGeometry relative="1" as="geometry" />
        </mxCell>
        <mxCell id="11CcQ5xyjY3BbOYTez_T-11" value="" style="endArrow=none;html=1;rounded=0;entryX=0;entryY=0.5;entryDx=0;entryDy=0;" edge="1" parent="1" target="11CcQ5xyjY3BbOYTez_T-5">
          <mxGeometry width="50" height="50" relative="1" as="geometry">
            <mxPoint x="110" y="260" as="sourcePoint" />
            <mxPoint x="150" y="210" as="targetPoint" />
          </mxGeometry>
        </mxCell>
        <mxCell id="11CcQ5xyjY3BbOYTez_T-12" value="" style="endArrow=none;html=1;rounded=0;entryX=0;entryY=0.5;entryDx=0;entryDy=0;exitX=1;exitY=0.3333333333333333;exitDx=0;exitDy=0;exitPerimeter=0;" edge="1" parent="1" source="11CcQ5xyjY3BbOYTez_T-1" target="11CcQ5xyjY3BbOYTez_T-6">
          <mxGeometry width="50" height="50" relative="1" as="geometry">
            <mxPoint x="110" y="290" as="sourcePoint" />
            <mxPoint x="200" y="200" as="targetPoint" />
          </mxGeometry>
        </mxCell>
        <mxCell id="11CcQ5xyjY3BbOYTez_T-13" value="" style="endArrow=none;html=1;rounded=0;entryX=0;entryY=0.5;entryDx=0;entryDy=0;" edge="1" parent="1" source="11CcQ5xyjY3BbOYTez_T-1" target="11CcQ5xyjY3BbOYTez_T-7">
          <mxGeometry width="50" height="50" relative="1" as="geometry">
            <mxPoint x="120" y="280" as="sourcePoint" />
            <mxPoint x="210" y="210" as="targetPoint" />
          </mxGeometry>
        </mxCell>
        <mxCell id="11CcQ5xyjY3BbOYTez_T-15" value="" style="endArrow=none;html=1;rounded=0;exitX=1;exitY=0.3333333333333333;exitDx=0;exitDy=0;exitPerimeter=0;entryX=0;entryY=0.5;entryDx=0;entryDy=0;" edge="1" parent="1" source="11CcQ5xyjY3BbOYTez_T-2" target="11CcQ5xyjY3BbOYTez_T-14">
          <mxGeometry width="50" height="50" relative="1" as="geometry">
            <mxPoint x="140" y="510" as="sourcePoint" />
            <mxPoint x="190" y="460" as="targetPoint" />
          </mxGeometry>
        </mxCell>
        <mxCell id="11CcQ5xyjY3BbOYTez_T-19" value="" style="endArrow=none;html=1;rounded=0;entryX=0;entryY=0.5;entryDx=0;entryDy=0;" edge="1" parent="1" source="11CcQ5xyjY3BbOYTez_T-2" target="11CcQ5xyjY3BbOYTez_T-17">
          <mxGeometry width="50" height="50" relative="1" as="geometry">
            <mxPoint x="120" y="620" as="sourcePoint" />
            <mxPoint x="170" y="570" as="targetPoint" />
          </mxGeometry>
        </mxCell>
        <mxCell id="11CcQ5xyjY3BbOYTez_T-20" value="Emitir CF" style="ellipse;whiteSpace=wrap;html=1;" vertex="1" parent="1">
          <mxGeometry x="470" y="110" width="120" height="40" as="geometry" />
        </mxCell>
        <mxCell id="11CcQ5xyjY3BbOYTez_T-21" value="Baixar Estoque" style="ellipse;whiteSpace=wrap;html=1;" vertex="1" parent="1">
          <mxGeometry x="510" y="210" width="120" height="40" as="geometry" />
        </mxCell>
        <mxCell id="11CcQ5xyjY3BbOYTez_T-22" value="Gerar Conta" style="ellipse;whiteSpace=wrap;html=1;" vertex="1" parent="1">
          <mxGeometry x="560" y="320" width="120" height="40" as="geometry" />
        </mxCell>
        <mxCell id="11CcQ5xyjY3BbOYTez_T-24" value="" style="endArrow=open;dashed=1;html=1;rounded=0;exitX=1;exitY=0;exitDx=0;exitDy=0;entryX=0;entryY=0.5;entryDx=0;entryDy=0;endFill=0;endSize=12;" edge="1" parent="1" source="11CcQ5xyjY3BbOYTez_T-7" target="11CcQ5xyjY3BbOYTez_T-20">
          <mxGeometry width="50" height="50" relative="1" as="geometry">
            <mxPoint x="310" y="310" as="sourcePoint" />
            <mxPoint x="360" y="260" as="targetPoint" />
          </mxGeometry>
        </mxCell>
        <mxCell id="11CcQ5xyjY3BbOYTez_T-27" value="&amp;lt;&amp;lt;include&amp;gt;&amp;gt;" style="edgeLabel;html=1;align=center;verticalAlign=middle;resizable=0;points=[];" vertex="1" connectable="0" parent="11CcQ5xyjY3BbOYTez_T-24">
          <mxGeometry x="-0.0184" y="-2" relative="1" as="geometry">
            <mxPoint as="offset" />
          </mxGeometry>
        </mxCell>
        <mxCell id="11CcQ5xyjY3BbOYTez_T-25" value="" style="endArrow=open;dashed=1;html=1;rounded=0;exitX=1;exitY=0.5;exitDx=0;exitDy=0;entryX=0;entryY=0.5;entryDx=0;entryDy=0;endFill=0;endSize=12;" edge="1" parent="1" source="11CcQ5xyjY3BbOYTez_T-7" target="11CcQ5xyjY3BbOYTez_T-21">
          <mxGeometry width="50" height="50" relative="1" as="geometry">
            <mxPoint x="340" y="320" as="sourcePoint" />
            <mxPoint x="390" y="270" as="targetPoint" />
          </mxGeometry>
        </mxCell>
        <mxCell id="11CcQ5xyjY3BbOYTez_T-28" value="&amp;lt;&amp;lt;include&amp;gt;&amp;gt;" style="edgeLabel;html=1;align=center;verticalAlign=middle;resizable=0;points=[];" vertex="1" connectable="0" parent="11CcQ5xyjY3BbOYTez_T-25">
          <mxGeometry x="0.0073" relative="1" as="geometry">
            <mxPoint as="offset" />
          </mxGeometry>
        </mxCell>
        <mxCell id="11CcQ5xyjY3BbOYTez_T-26" value="" style="endArrow=open;dashed=1;html=1;rounded=0;exitX=1;exitY=1;exitDx=0;exitDy=0;entryX=0;entryY=0.5;entryDx=0;entryDy=0;endSize=12;endFill=0;" edge="1" parent="1" source="11CcQ5xyjY3BbOYTez_T-7" target="11CcQ5xyjY3BbOYTez_T-22">
          <mxGeometry width="50" height="50" relative="1" as="geometry">
            <mxPoint x="350" y="330" as="sourcePoint" />
            <mxPoint x="400" y="280" as="targetPoint" />
          </mxGeometry>
        </mxCell>
        <mxCell id="11CcQ5xyjY3BbOYTez_T-29" value="&amp;lt;&amp;lt;include&amp;gt;&amp;gt;" style="edgeLabel;html=1;align=center;verticalAlign=middle;resizable=0;points=[];" vertex="1" connectable="0" parent="11CcQ5xyjY3BbOYTez_T-26">
          <mxGeometry x="0.0088" relative="1" as="geometry">
            <mxPoint as="offset" />
          </mxGeometry>
        </mxCell>
        <mxCell id="11CcQ5xyjY3BbOYTez_T-30" value="Efetuar Login" style="ellipse;whiteSpace=wrap;html=1;" vertex="1" parent="1">
          <mxGeometry x="190" y="130" width="120" height="40" as="geometry" />
        </mxCell>
        <mxCell id="11CcQ5xyjY3BbOYTez_T-31" value="" style="endArrow=none;html=1;rounded=0;exitX=0.5;exitY=0;exitDx=0;exitDy=0;exitPerimeter=0;entryX=0;entryY=0.5;entryDx=0;entryDy=0;" edge="1" parent="1" source="11CcQ5xyjY3BbOYTez_T-1" target="11CcQ5xyjY3BbOYTez_T-30">
          <mxGeometry width="50" height="50" relative="1" as="geometry">
            <mxPoint x="90" y="220" as="sourcePoint" />
            <mxPoint x="140" y="170" as="targetPoint" />
          </mxGeometry>
        </mxCell>
        <mxCell id="11CcQ5xyjY3BbOYTez_T-34" style="edgeStyle=orthogonalEdgeStyle;rounded=0;orthogonalLoop=1;jettySize=auto;html=1;endArrow=block;endFill=0;jumpSize=12;strokeWidth=1;endSize=12;" edge="1" parent="1" source="11CcQ5xyjY3BbOYTez_T-32" target="11CcQ5xyjY3BbOYTez_T-22">
          <mxGeometry relative="1" as="geometry" />
        </mxCell>
        <mxCell id="11CcQ5xyjY3BbOYTez_T-32" value="A Vista" style="ellipse;whiteSpace=wrap;html=1;" vertex="1" parent="1">
          <mxGeometry x="470" y="430" width="120" height="40" as="geometry" />
        </mxCell>
        <mxCell id="11CcQ5xyjY3BbOYTez_T-35" style="edgeStyle=orthogonalEdgeStyle;rounded=0;orthogonalLoop=1;jettySize=auto;html=1;endArrow=block;endFill=0;jumpSize=25;endSize=12;" edge="1" parent="1" source="11CcQ5xyjY3BbOYTez_T-33" target="11CcQ5xyjY3BbOYTez_T-22">
          <mxGeometry relative="1" as="geometry" />
        </mxCell>
        <mxCell id="11CcQ5xyjY3BbOYTez_T-33" value="A Prazo" style="ellipse;whiteSpace=wrap;html=1;" vertex="1" parent="1">
          <mxGeometry x="660" y="430" width="120" height="40" as="geometry" />
        </mxCell>
        <mxCell id="11CcQ5xyjY3BbOYTez_T-36" value="Calcular Desconto" style="ellipse;whiteSpace=wrap;html=1;" vertex="1" parent="1">
          <mxGeometry x="354" y="610" width="120" height="40" as="geometry" />
        </mxCell>
        <mxCell id="11CcQ5xyjY3BbOYTez_T-38" value="" style="endArrow=open;dashed=1;html=1;rounded=0;exitX=0.5;exitY=0;exitDx=0;exitDy=0;entryX=0;entryY=1;entryDx=0;entryDy=0;endSize=12;endFill=0;" edge="1" parent="1" source="11CcQ5xyjY3BbOYTez_T-36" target="11CcQ5xyjY3BbOYTez_T-32">
          <mxGeometry width="50" height="50" relative="1" as="geometry">
            <mxPoint x="420" y="590" as="sourcePoint" />
            <mxPoint x="470" y="540" as="targetPoint" />
          </mxGeometry>
        </mxCell>
        <mxCell id="11CcQ5xyjY3BbOYTez_T-39" value="&amp;lt;&amp;lt;extend&amp;gt;&amp;gt;" style="edgeLabel;html=1;align=center;verticalAlign=middle;resizable=0;points=[];" vertex="1" connectable="0" parent="11CcQ5xyjY3BbOYTez_T-38">
          <mxGeometry x="-0.0144" y="-2" relative="1" as="geometry">
            <mxPoint as="offset" />
          </mxGeometry>
        </mxCell>
        <mxCell id="11CcQ5xyjY3BbOYTez_T-42" style="edgeStyle=orthogonalEdgeStyle;rounded=0;orthogonalLoop=1;jettySize=auto;html=1;entryX=0.5;entryY=1;entryDx=0;entryDy=0;endSize=12;endArrow=block;endFill=0;" edge="1" parent="1" source="11CcQ5xyjY3BbOYTez_T-40" target="11CcQ5xyjY3BbOYTez_T-33">
          <mxGeometry relative="1" as="geometry" />
        </mxCell>
        <mxCell id="11CcQ5xyjY3BbOYTez_T-40" value="Boleto" style="ellipse;whiteSpace=wrap;html=1;" vertex="1" parent="1">
          <mxGeometry x="560" y="560" width="120" height="40" as="geometry" />
        </mxCell>
        <mxCell id="11CcQ5xyjY3BbOYTez_T-43" style="edgeStyle=orthogonalEdgeStyle;rounded=0;orthogonalLoop=1;jettySize=auto;html=1;endSize=12;endArrow=block;endFill=0;" edge="1" parent="1" source="11CcQ5xyjY3BbOYTez_T-41" target="11CcQ5xyjY3BbOYTez_T-33">
          <mxGeometry relative="1" as="geometry" />
        </mxCell>
        <mxCell id="11CcQ5xyjY3BbOYTez_T-41" value="Cartão" style="ellipse;whiteSpace=wrap;html=1;" vertex="1" parent="1">
          <mxGeometry x="780" y="560" width="120" height="40" as="geometry" />
        </mxCell>
        <mxCell id="11CcQ5xyjY3BbOYTez_T-44" value="S" style="swimlane;startSize=0;" vertex="1" parent="1">
          <mxGeometry x="140" y="30" width="780" height="700" as="geometry">
            <mxRectangle x="140" y="30" width="50" height="40" as="alternateBounds" />
          </mxGeometry>
        </mxCell>
        <mxCell id="11CcQ5xyjY3BbOYTez_T-46" value="" style="verticalLabelPosition=bottom;verticalAlign=top;html=1;shape=card;whiteSpace=wrap;size=20;arcSize=12;rotation=-180;" vertex="1" parent="11CcQ5xyjY3BbOYTez_T-44">
          <mxGeometry width="90" height="60" as="geometry" />
        </mxCell>
        <mxCell id="11CcQ5xyjY3BbOYTez_T-47" value="&lt;font style=&quot;font-size: 15px;&quot;&gt;SCL&lt;/font&gt;" style="text;html=1;align=center;verticalAlign=middle;resizable=0;points=[];autosize=1;strokeColor=none;fillColor=none;" vertex="1" parent="11CcQ5xyjY3BbOYTez_T-44">
          <mxGeometry x="20" y="15" width="50" height="30" as="geometry" />
        </mxCell>
        <mxCell id="11CcQ5xyjY3BbOYTez_T-17" value="Realização de Pagamentos" style="ellipse;whiteSpace=wrap;html=1;" vertex="1" parent="11CcQ5xyjY3BbOYTez_T-44">
          <mxGeometry x="40" y="570" width="120" height="40" as="geometry" />
        </mxCell>
        <mxCell id="11CcQ5xyjY3BbOYTez_T-14" value="Gerenciamento de Estoques" style="ellipse;whiteSpace=wrap;html=1;" vertex="1" parent="11CcQ5xyjY3BbOYTez_T-44">
          <mxGeometry x="90" y="480" width="120" height="40" as="geometry" />
        </mxCell>
        <mxCell id="11CcQ5xyjY3BbOYTez_T-48" value="Manter Produtos" style="ellipse;whiteSpace=wrap;html=1;" vertex="1" parent="11CcQ5xyjY3BbOYTez_T-44">
          <mxGeometry x="100" y="400" width="120" height="40" as="geometry" />
        </mxCell>
        <mxCell id="11CcQ5xyjY3BbOYTez_T-49" value="" style="endArrow=none;html=1;rounded=0;exitX=0.75;exitY=0.1;exitDx=0;exitDy=0;exitPerimeter=0;entryX=0;entryY=0.5;entryDx=0;entryDy=0;" edge="1" parent="1" source="11CcQ5xyjY3BbOYTez_T-2" target="11CcQ5xyjY3BbOYTez_T-48">
          <mxGeometry width="50" height="50" relative="1" as="geometry">
            <mxPoint x="170" y="490" as="sourcePoint" />
            <mxPoint x="220" y="440" as="targetPoint" />
          </mxGeometry>
        </mxCell>
      </root>
    </mxGraphModel>
  </diagram>
</mxfile>
